# xmcd
#
# Track frame offsets:
#	150
#	14825
#	29015
#	41770
#	54865
#	68065
#	81447
#	92750
#	111762
#	125265
#	139432
#	153925
#	168747
#	182352
#
# Disc length: 2657
#
# Revision: 1
# Processed by: cddbd v1.5.1PL0 Copyright (c) Steve Scherf et al.
# Submitted via: CDex 1.50
# Normalized: r0:TDELIM( - )
#
DISCID=c00a5f0e
DTITLE=Various Artist - It's double jazz time CD2
DYEAR=1993
DGENRE=Jazz
TTITLE0=Woody Herman - The golden wedding
TTITLE1=Jimmy Dorsey - Blue Lou
TTITLE2=Glenn Miller - It must be jelly
TTITLE3=Jack Teagarden - Fort Knox jump
TTITLE4=Fats Waller - Christopher Columbus
TTITLE5=Teddy Wilson - Sugar plum
TTITLE6=Nat King Cole - On the sunny side of the street
TTITLE7=Roy Eldridge - I can't believe that you're in love with me
TTITLE8=Duke Ellington - Merry-go-round
TTITLE9=Cab Calloway - Jitter bug
TTITLE10=Les Brown - Harlem nocturne
TTITLE11=Hot Lips Page - Gone with the gin
TTITLE12=Count Basie - Honeysuckle rose
TTITLE13=Bunny Berigan - Flat foot boogie
EXTD=YEAR: 1993
EXTT0=
EXTT1=
EXTT2=
EXTT3=
EXTT4=
EXTT5=
EXTT6=
EXTT7=
EXTT8=
EXTT9=
EXTT10=
EXTT11=
EXTT12=
EXTT13=
PLAYORDER=
